<svg xmlns="http://www.w3.org/2000/svg" xmlns:xlink="http://www.w3.org/1999/xlink" width="600" zoomAndPan="magnify" viewBox="0 0 450 449.999984" height="600" preserveAspectRatio="xMidYMid meet" version="1.0"><defs><clipPath id="ddd8ac1796"><path d="M 165 352 L 242 352 L 242 429 L 165 429 Z M 165 352 " clip-rule="nonzero"/></clipPath><clipPath id="423c91d66b"><path d="M 381.160156 127.429688 L 458.636719 389.207031 L 186.792969 469.664062 L 109.316406 207.890625 Z M 381.160156 127.429688 " clip-rule="nonzero"/></clipPath><clipPath id="7604dcb971"><path d="M 381.160156 127.429688 L 458.636719 389.207031 L 186.792969 469.664062 L 109.316406 207.890625 Z M 381.160156 127.429688 " clip-rule="nonzero"/></clipPath><clipPath id="11e8dd6a13"><path d="M 381.160156 127.429688 L 458.636719 389.207031 L 186.792969 469.664062 L 109.316406 207.890625 Z M 381.160156 127.429688 " clip-rule="nonzero"/></clipPath><clipPath id="44257df75d"><path d="M 317 136 L 394 136 L 394 214 L 317 214 Z M 317 136 " clip-rule="nonzero"/></clipPath><clipPath id="5d0515a000"><path d="M 381.160156 127.429688 L 458.636719 389.207031 L 186.792969 469.664062 L 109.316406 207.890625 Z M 381.160156 127.429688 " clip-rule="nonzero"/></clipPath><clipPath id="5b7ea41c12"><path d="M 381.160156 127.429688 L 458.636719 389.207031 L 186.792969 469.664062 L 109.316406 207.890625 Z M 381.160156 127.429688 " clip-rule="nonzero"/></clipPath><clipPath id="eb3f5468ee"><path d="M 381.160156 127.429688 L 458.636719 389.207031 L 186.792969 469.664062 L 109.316406 207.890625 Z M 381.160156 127.429688 " clip-rule="nonzero"/></clipPath><clipPath id="cb18eb3cf9"><path d="M 191 225 L 305 225 L 305 346 L 191 346 Z M 191 225 " clip-rule="nonzero"/></clipPath><clipPath id="cfd9e54107"><path d="M 381.160156 127.429688 L 458.636719 389.207031 L 186.792969 469.664062 L 109.316406 207.890625 Z M 381.160156 127.429688 " clip-rule="nonzero"/></clipPath><clipPath id="c6409901ec"><path d="M 381.160156 127.429688 L 458.636719 389.207031 L 186.792969 469.664062 L 109.316406 207.890625 Z M 381.160156 127.429688 " clip-rule="nonzero"/></clipPath><clipPath id="607b4cc1ce"><path d="M 381.160156 127.429688 L 458.636719 389.207031 L 186.792969 469.664062 L 109.316406 207.890625 Z M 381.160156 127.429688 " clip-rule="nonzero"/></clipPath><clipPath id="4e84ae8cbf"><path d="M 236 247 L 288 247 L 288 282 L 236 282 Z M 236 247 " clip-rule="nonzero"/></clipPath><clipPath id="18ddbb258e"><path d="M 381.160156 127.429688 L 458.636719 389.207031 L 186.792969 469.664062 L 109.316406 207.890625 Z M 381.160156 127.429688 " clip-rule="nonzero"/></clipPath><clipPath id="5aeb4b988f"><path d="M 381.160156 127.429688 L 458.636719 389.207031 L 186.792969 469.664062 L 109.316406 207.890625 Z M 381.160156 127.429688 " clip-rule="nonzero"/></clipPath><clipPath id="0f61f29a64"><path d="M 381.160156 127.429688 L 458.636719 389.207031 L 186.792969 469.664062 L 109.316406 207.890625 Z M 381.160156 127.429688 " clip-rule="nonzero"/></clipPath><clipPath id="f2dbe27c8e"><path d="M 275 251 L 439 251 L 439 416 L 275 416 Z M 275 251 " clip-rule="nonzero"/></clipPath><clipPath id="8c05460aa7"><path d="M 381.160156 127.429688 L 458.636719 389.207031 L 186.792969 469.664062 L 109.316406 207.890625 Z M 381.160156 127.429688 " clip-rule="nonzero"/></clipPath><clipPath id="cae2083800"><path d="M 381.160156 127.429688 L 458.636719 389.207031 L 186.792969 469.664062 L 109.316406 207.890625 Z M 381.160156 127.429688 " clip-rule="nonzero"/></clipPath><clipPath id="6297b8fe93"><path d="M 381.160156 127.429688 L 458.636719 389.207031 L 186.792969 469.664062 L 109.316406 207.890625 Z M 381.160156 127.429688 " clip-rule="nonzero"/></clipPath><clipPath id="6aea6a8fb9"><path d="M 336 273 L 415 273 L 415 324 L 336 324 Z M 336 273 " clip-rule="nonzero"/></clipPath><clipPath id="1b352e58b0"><path d="M 381.160156 127.429688 L 458.636719 389.207031 L 186.792969 469.664062 L 109.316406 207.890625 Z M 381.160156 127.429688 " clip-rule="nonzero"/></clipPath><clipPath id="94ad0f1f07"><path d="M 381.160156 127.429688 L 458.636719 389.207031 L 186.792969 469.664062 L 109.316406 207.890625 Z M 381.160156 127.429688 " clip-rule="nonzero"/></clipPath><clipPath id="e3764c311b"><path d="M 381.160156 127.429688 L 458.636719 389.207031 L 186.792969 469.664062 L 109.316406 207.890625 Z M 381.160156 127.429688 " clip-rule="nonzero"/></clipPath></defs><g clip-path="url(#ddd8ac1796)"><g clip-path="url(#423c91d66b)"><g clip-path="url(#7604dcb971)"><g clip-path="url(#11e8dd6a13)"><path fill="#000000" d="M 239.855469 379.933594 C 233.867188 359.695312 212.621094 348.136719 192.425781 354.113281 C 172.210938 360.097656 160.699219 381.351562 166.691406 401.589844 C 172.679688 421.832031 193.90625 433.394531 214.121094 427.410156 C 234.3125 421.433594 245.847656 400.175781 239.855469 379.933594 Z M 177.140625 398.496094 C 172.867188 384.058594 181.113281 368.851562 195.527344 364.585938 C 209.9375 360.320312 225.128906 368.589844 229.40625 383.027344 C 233.679688 397.46875 225.433594 412.675781 211.019531 416.941406 C 196.605469 421.207031 181.417969 412.9375 177.140625 398.496094 Z M 177.140625 398.496094 " fill-opacity="1" fill-rule="nonzero"/></g></g></g></g><g clip-path="url(#44257df75d)"><g clip-path="url(#5d0515a000)"><g clip-path="url(#5b7ea41c12)"><g clip-path="url(#eb3f5468ee)"><path fill="#000000" d="M 391.964844 164.089844 C 385.972656 143.851562 364.726562 132.292969 344.535156 138.269531 C 324.320312 144.253906 312.808594 165.507812 318.796875 185.746094 C 324.789062 205.988281 346.011719 217.550781 366.226562 211.566406 C 386.421875 205.589844 397.957031 184.332031 391.964844 164.089844 Z M 329.25 182.652344 C 324.976562 168.214844 333.21875 153.007812 347.632812 148.742188 C 362.046875 144.476562 377.238281 152.746094 381.511719 167.183594 C 385.785156 181.625 377.542969 196.832031 363.128906 201.097656 C 348.714844 205.363281 333.523438 197.09375 329.25 182.652344 Z M 329.25 182.652344 " fill-opacity="1" fill-rule="nonzero"/></g></g></g></g><g clip-path="url(#cb18eb3cf9)"><g clip-path="url(#cfd9e54107)"><g clip-path="url(#c6409901ec)"><g clip-path="url(#607b4cc1ce)"><path fill="#000000" d="M 204.609375 299.261719 C 196.921875 273.28125 211.757812 245.898438 237.699219 238.21875 C 261.113281 231.289062 285.542969 242.851562 295.75 264.28125 C 298.574219 261.792969 301.511719 259.429688 304.628906 257.289062 C 291.550781 232.53125 262.40625 219.519531 234.601562 227.75 C 202.898438 237.132812 184.761719 270.605469 194.160156 302.355469 C 203.183594 332.847656 234.375 350.773438 264.90625 343.847656 C 264.515625 340.113281 264.253906 336.386719 264.292969 332.707031 C 238.75 339.515625 212.171875 324.808594 204.609375 299.261719 Z M 204.609375 299.261719 " fill-opacity="1" fill-rule="nonzero"/></g></g></g></g><g clip-path="url(#4e84ae8cbf)"><g clip-path="url(#18ddbb258e)"><g clip-path="url(#5aeb4b988f)"><g clip-path="url(#0f61f29a64)"><path fill="#000000" d="M 240.800781 248.691406 C 237.90625 249.546875 236.269531 252.582031 237.125 255.472656 C 237.980469 258.363281 241.003906 260.019531 243.898438 259.160156 C 258.3125 254.894531 273.503906 263.164062 277.777344 277.605469 C 278.253906 279.21875 279.441406 280.382812 280.875 281.003906 C 282.875 278.078125 285.109375 275.296875 287.457031 272.621094 C 280.703125 253.644531 260.292969 242.921875 240.800781 248.691406 Z M 240.800781 248.691406 " fill-opacity="1" fill-rule="nonzero"/></g></g></g></g><g clip-path="url(#f2dbe27c8e)"><g clip-path="url(#8c05460aa7)"><g clip-path="url(#cae2083800)"><g clip-path="url(#6297b8fe93)"><path fill="#000000" d="M 435.351562 310.683594 C 422.511719 267.304688 377.019531 242.539062 333.714844 255.355469 C 290.414062 268.171875 265.726562 313.707031 278.566406 357.089844 C 291.40625 400.472656 336.898438 425.238281 380.203125 412.417969 C 423.507812 399.601562 448.191406 354.066406 435.351562 310.683594 Z M 289.019531 353.996094 C 277.914062 316.46875 299.355469 276.914062 336.816406 265.824219 C 374.277344 254.738281 413.792969 276.25 424.898438 313.777344 C 436.007812 351.308594 414.566406 390.859375 377.105469 401.949219 C 339.644531 413.035156 300.125 391.523438 289.019531 353.996094 Z M 289.019531 353.996094 " fill-opacity="1" fill-rule="nonzero"/></g></g></g></g><g clip-path="url(#6aea6a8fb9)"><g clip-path="url(#1b352e58b0)"><g clip-path="url(#94ad0f1f07)"><g clip-path="url(#e3764c311b)"><path fill="#000000" d="M 336.238281 283.078125 C 335.382812 280.1875 337.019531 277.152344 339.914062 276.296875 C 371.617188 266.914062 405.046875 285.113281 414.449219 316.871094 C 415.304688 319.761719 413.644531 322.804688 410.769531 323.65625 C 407.875 324.511719 404.851562 322.855469 403.996094 319.964844 C 396.304688 293.988281 368.945312 279.09375 343.015625 286.769531 C 340.117188 287.625 337.09375 285.96875 336.238281 283.078125 Z M 336.238281 283.078125 " fill-opacity="1" fill-rule="nonzero"/></g></g></g></g></svg>